<?xml version="1.0" encoding="UTF-8"?>
<svg width="70px" height="32px" viewBox="0 0 70 32" version="1.1" xmlns="http://www.w3.org/2000/svg" xmlns:xlink="http://www.w3.org/1999/xlink">
    <title>0BAB52B0-7D80-422F-AEF2-819FFEDC88AE</title>
    <desc>Created with sketchtool.</desc>
    <defs></defs>
    <g id="Symbols" stroke="none" stroke-width="1" fill="none" fill-rule="evenodd">
        <g id="navigation-/-logo" fill="#242424" fill-rule="nonzero">
            <g id="MW_logo_symbol_black">
                <g>
                    <polygon id="Shape" points="15.4936552 30.4751274 24.2933793 30.4751274 10.2518621 0.202863383 5.852 9.68891046"></polygon>
                    <polygon id="Shape" points="30.2187586 30.4751274 39.0194483 30.4751274 24.977931 0.202863383 20.578069 9.68891046"></polygon>
                    <path d="M3.7742069,23.203106 C1.69351724,23.203106 0,24.8793982 0,26.9400631 C0,29.000728 1.69351724,30.6779908 3.7742069,30.6779908 C5.85489655,30.6779908 7.54841379,29.0016986 7.54841379,26.9400631 C7.54841379,24.8784276 5.85586207,23.203106 3.7742069,23.203106 Z" id="Shape"></path>
                    <polygon id="Shape" points="45.6293793 0.202863383 59.6708966 30.4751274 64.0707586 20.9881097 54.4291034 0.202863383"></polygon>
                    <polygon id="Shape" points="30.9033103 0.202863383 44.9448276 30.4751274 49.3446897 20.9881097 39.704 0.202863383"></polygon>
                    <path d="M66.1495172,0 C64.0688276,0 62.3753103,1.67629216 62.3753103,3.73792769 C62.3753103,5.79956321 64.0688276,7.47488474 66.1495172,7.47488474 C68.2302069,7.47488474 69.9237241,5.79859257 69.9237241,3.73792769 C69.9237241,1.6772628 68.2302069,0 66.1495172,0 Z" id="Shape"></path>
                </g>
            </g>
        </g>
    </g>
</svg>